<svg width="182" height="59" viewBox="0 0 182 59" fill="none" xmlns="http://www.w3.org/2000/svg" aria-hidden="true" class="logo">
    <path d="M0 1.13h14.9v19.828h5.935V1.13h14.28v55.423h-14.28V35.367H14.9v21.188H0V1.128zm40.27 0h25.934v12.993h-12.21v6.836h11.26v13.68h-11.26v7.4h12.21v14.52H40.271V1.13zm29.91 0h14.28v41.468h9.4v13.954H70.18V1.129zm27.891 0h14.843v41.468h9.297v13.954h-24.14V1.129zm82.445 0h-14.339v36.723h14.339V1.129zm-6.891 57.86a8.83 8.83 0 01-6.137-2.569 8.633 8.633 0 01-2.544-6.089 8.182 8.182 0 01.567-3.236 8.263 8.263 0 011.794-2.764 8.381 8.381 0 012.739-1.858 8.462 8.462 0 013.254-.66 8.436 8.436 0 013.389.568 8.365 8.365 0 012.871 1.869 8.199 8.199 0 012.414 6.208 7.802 7.802 0 01-.434 3.307 7.866 7.866 0 01-1.779 2.833 7.978 7.978 0 01-2.805 1.852 8.05 8.05 0 01-3.329.539zm-30.353-1.59a21.16 21.16 0 01-9.232-1.902 15.565 15.565 0 01-5.603-4.518 17.195 17.195 0 01-3.535-9.85V15.085a15.458 15.458 0 012.781-8.454C130.8 2.231 136.045 0 143.272 0c11.908 0 18.203 5.372 18.203 15.537 0 4.233.058 23.275.17 25.477a17.12 17.12 0 01-1.668 6.547 17.284 17.284 0 01-4.079 5.416 17.522 17.522 0 01-5.867 3.455 17.655 17.655 0 01-6.759.968zm-.052-43.954a2.689 2.689 0 00-2.064.743 2.632 2.632 0 00-.795 2.024v22.824a2.762 2.762 0 00.796 2.164 2.842 2.842 0 002.173.83 3.045 3.045 0 002.031-.935 2.978 2.978 0 00.825-2.06c0-.928-.029-6.228-.055-11.357v-.1c-.026-5.132-.055-10.44-.055-11.358a2.747 2.747 0 00-.841-1.978 2.825 2.825 0 00-2.015-.797z" fill="#fff"></path>
</svg>